<?xml version="1.0" encoding="UTF-8"?>
<svg version="1.1" xmlns="http://www.w3.org/2000/svg"  viewBox="0 0 500 500" width="500" height="500">
<path d="M0 0 C1.09892578 0.26103516 2.19785156 0.52207031 3.33007812 0.79101562 C12.18343986 2.90392753 12.18343986 2.90392753 16.26318359 4.05615234 C29.14620582 7.62462992 40.15256924 5.90636037 52.875 2.8125 C54.23734011 2.4909559 55.59997014 2.1706376 56.96289062 1.8515625 C59.55961744 1.24193664 62.15471467 0.62649383 64.74926758 0.00756836 C78.29395794 -3.22303697 88.46076394 -4.28882108 101.0625 2.6875 C112.96014933 10.20576182 123.32071161 20.09367383 126.70800781 33.97265625 C127.90577973 39.50533795 128.7381521 45.10928095 129.61962891 50.69921875 C130.73558028 57.71192186 132.07042151 64.63433008 133.625 71.5625 C135.96347087 81.99920889 138.01078458 92.47682551 140.00390625 102.984375 C141.0263859 108.37278508 142.09681175 113.75005733 143.1875 119.125 C144.83585569 127.30026434 146.40126699 135.49046011 147.9375 143.6875 C148.16050781 144.8643335 148.38351562 146.04116699 148.61328125 147.25366211 C148.81824219 148.35589111 149.02320313 149.45812012 149.234375 150.59375 C149.51039551 152.06811523 149.51039551 152.06811523 149.79199219 153.57226562 C150.1875 156.1875 150.1875 156.1875 150.1875 160.1875 C162.25380011 156.198818 171.66322963 152.26543754 180.0703125 142.53125 C181.11832031 141.37109375 181.11832031 141.37109375 182.1875 140.1875 C182.8475 140.1875 183.5075 140.1875 184.1875 140.1875 C184.1875 139.5275 184.1875 138.8675 184.1875 138.1875 C184.8475 138.1875 185.5075 138.1875 186.1875 138.1875 C186.4453125 137.60484375 186.703125 137.0221875 186.96875 136.421875 C188.28584017 134.0072097 189.73838384 132.37009823 191.6875 130.4375 C192.2959375 129.82390625 192.904375 129.2103125 193.53125 128.578125 C195.1875 127.1875 195.1875 127.1875 197.1875 127.1875 C197.1875 126.5275 197.1875 125.8675 197.1875 125.1875 C199.0922638 123.61887099 200.97172007 122.20584505 203 120.8125 C203.5873291 120.40837891 204.1746582 120.00425781 204.77978516 119.58789062 C215.45089783 112.48341097 227.65591543 109.71494216 240.39453125 111.49609375 C246.13617533 112.73664018 250.43341412 114.68577096 253.85546875 119.56640625 C260.10540186 129.76522822 260.84820303 140.52442266 258.82128906 152.31835938 C256.64083291 161.21244456 251.83286069 168.14637685 246.1875 175.1875 C245.5275 176.1775 244.8675 177.1675 244.1875 178.1875 C243.5275 178.1875 242.8675 178.1875 242.1875 178.1875 C241.8575 179.1775 241.5275 180.1675 241.1875 181.1875 C240.5275 181.1875 239.8675 181.1875 239.1875 181.1875 C239.1875 181.8475 239.1875 182.5075 239.1875 183.1875 C238.5275 183.1875 237.8675 183.1875 237.1875 183.1875 C237.1875 183.8475 237.1875 184.5075 237.1875 185.1875 C236.5275 185.1875 235.8675 185.1875 235.1875 185.1875 C235.1875 185.8475 235.1875 186.5075 235.1875 187.1875 C223.59028865 196.47297487 210.08155789 204.03543313 196.1875 209.1875 C195.40294434 209.48124512 194.61838867 209.77499023 193.81005859 210.07763672 C111.93263148 240.47714717 15.29980576 242.47847035 -69.8125 226.1875 C-70.7627002 226.00993164 -71.71290039 225.83236328 -72.69189453 225.64941406 C-107.08121298 219.16566086 -147.43795818 210.09678949 -173.8125 185.1875 C-173.8125 184.5275 -173.8125 183.8675 -173.8125 183.1875 C-174.4725 183.1875 -175.1325 183.1875 -175.8125 183.1875 C-187.29613814 171.12554915 -193.55705156 155.58257781 -193.875 138.91015625 C-193.56453067 130.5953996 -191.89008112 123.46052074 -186.01953125 117.30859375 C-177.84366181 110.53616697 -168.76003991 110.70783887 -158.625 111.6484375 C-153.73270886 112.34017539 -150.02545843 113.66806744 -145.8125 116.1875 C-145.04808594 116.61804688 -144.28367188 117.04859375 -143.49609375 117.4921875 C-139.47404675 119.85645165 -139.47404675 119.85645165 -137.8125 121.1875 C-137.8125 121.8475 -137.8125 122.5075 -137.8125 123.1875 C-137.1525 123.1875 -136.4925 123.1875 -135.8125 123.1875 C-135.8125 123.8475 -135.8125 124.5075 -135.8125 125.1875 C-134.8225 125.5175 -133.8325 125.8475 -132.8125 126.1875 C-132.8125 126.8475 -132.8125 127.5075 -132.8125 128.1875 C-132.1525 128.1875 -131.4925 128.1875 -130.8125 128.1875 C-130.8125 128.8475 -130.8125 129.5075 -130.8125 130.1875 C-130.1525 130.1875 -129.4925 130.1875 -128.8125 130.1875 C-128.8125 130.8475 -128.8125 131.5075 -128.8125 132.1875 C-128.1525 132.1875 -127.4925 132.1875 -126.8125 132.1875 C-126.8125 132.8475 -126.8125 133.5075 -126.8125 134.1875 C-126.1525 134.1875 -125.4925 134.1875 -124.8125 134.1875 C-124.8125 134.8475 -124.8125 135.5075 -124.8125 136.1875 C-124.1525 136.1875 -123.4925 136.1875 -122.8125 136.1875 C-121.33203125 137.69140625 -121.33203125 137.69140625 -119.625 139.75 C-118.37742868 141.24883861 -117.10180643 142.72440728 -115.8125 144.1875 C-115.34924316 144.74300537 -114.88598633 145.29851074 -114.40869141 145.87084961 C-109.55239152 151.27877051 -104.37420525 153.37390216 -97.5625 155.625 C-96.56992188 155.97498047 -95.57734375 156.32496094 -94.5546875 156.68554688 C-89.30208994 158.57739277 -89.30208994 158.57739277 -83.8125 159.1875 C-80.61753825 143.90538477 -77.45115897 128.61768256 -74.32763672 113.32080078 C-73.68192708 110.16022201 -73.03432664 107.00003404 -72.38671875 103.83984375 C-70.3234596 93.75061465 -68.30536736 83.6578982 -66.43408203 73.53125 C-65.44829971 68.22831415 -64.38205259 62.94237798 -63.29003906 57.66040039 C-62.47910717 53.69748044 -61.72345682 49.75407471 -61.171875 45.74609375 C-59.8157894 36.24241544 -57.012193 30.46759553 -50.8125 23.1875 C-49.83949363 21.93106434 -48.87374487 20.66898566 -47.9140625 19.40234375 C-46.92238573 18.10117309 -45.93020265 16.80038815 -44.9375 15.5 C-44.46119141 14.87464355 -43.98488281 14.24928711 -43.49414062 13.60498047 C-42.31371032 12.09472405 -41.06830193 10.6356891 -39.8125 9.1875 C-39.1525 9.1875 -38.4925 9.1875 -37.8125 9.1875 C-37.45091797 8.31158203 -37.45091797 8.31158203 -37.08203125 7.41796875 C-35.56859551 4.75897858 -33.91326975 3.36977707 -31.5 1.5 C-30.74074219 0.89800781 -29.98148438 0.29601562 -29.19921875 -0.32421875 C-20.54776743 -5.71898627 -9.14050676 -2.24401298 0 0 Z M-28.875 14.8125 C-32.98718828 19.12750029 -36.86478204 23.62748237 -40.625 28.25 C-41.17615479 28.8908252 -41.72730957 29.53165039 -42.29516602 30.19189453 C-47.69250516 37.04505695 -49.12451051 44.83757369 -50.8125 53.1875 C-51.03082489 54.2526181 -51.24914978 55.31773621 -51.47409058 56.41513062 C-53.19048994 64.83031884 -54.8407547 73.25768361 -56.47503662 81.68908691 C-57.14001292 85.11554648 -57.80935959 88.54115155 -58.47851562 91.96679688 C-59.23570611 95.84358883 -59.99223606 99.72050384 -60.74562073 103.59803772 C-60.97273239 104.76652756 -61.19984406 105.9350174 -61.43383789 107.13891602 C-61.65564728 108.28377472 -61.87745667 109.42863342 -62.10598755 110.60818481 C-62.60844477 113.15372064 -63.12276585 115.69454785 -63.65255737 118.23434448 C-63.79157943 118.90757972 -63.93060148 119.58081495 -64.07383633 120.27445126 C-64.4635711 122.15665602 -64.85857031 124.0377685 -65.25389099 125.91880798 C-65.74046608 128.76599464 -65.92785911 131.31069908 -65.8125 134.1875 C-44.53432833 145.76277668 -7.75867541 145.79723638 16.1875 146.1875 C16.99993164 146.20264648 17.81236328 146.21779297 18.64941406 146.23339844 C24.1193329 146.31942324 29.58372453 146.30370099 35.05371094 146.22900391 C37.22094187 146.2003011 39.38828919 146.1796665 41.55566406 146.16552734 C72.4739478 145.91433225 103.36606249 142.57572955 133.1875 134.1875 C132.46914937 124.33294343 130.50450656 114.74667231 128.625 105.0625 C128.26917028 103.21301013 127.913542 101.36348149 127.55810547 99.51391602 C125.02634667 86.37442712 122.43401308 73.24685202 119.8125 60.125 C119.64378387 59.28024109 119.47506775 58.43548218 119.30123901 57.56512451 C114.22230729 31.22430153 114.22230729 31.22430153 95.1875 13.1875 C89.18651958 9.46482876 85.19011999 8.96160903 78.1875 9.1875 C77.5275 9.5175 76.8675 9.8475 76.1875 10.1875 C76.1875 10.8475 76.1875 11.5075 76.1875 12.1875 C75.5275 12.1875 74.8675 12.1875 74.1875 12.1875 C72.52083333 13.52083333 72.52083333 13.52083333 71.1875 15.1875 C71.1875 15.8475 71.1875 16.5075 71.1875 17.1875 C70.35605469 17.53748047 70.35605469 17.53748047 69.5078125 17.89453125 C66.59056685 19.52013447 64.48101245 21.57282999 62.0625 23.875 C53.13057728 32.15139622 44.04466408 39.0997781 31.625 40.625 C14.44312192 38.43821552 2.27110899 26.29763047 -9.48828125 14.50390625 C-17.2045294 6.81359507 -21.19282855 7.5116128 -28.875 14.8125 Z M9.1875 15.1875 C9.1875 15.8475 9.1875 16.5075 9.1875 17.1875 C19.80145737 26.39834856 19.80145737 26.39834856 33.0625 29.25 C41.6772519 28.04733357 47.92328131 21.78531245 54.1875 16.1875 C50.08879751 14.56086089 46.26460718 15.8138757 42.125 16.6875 C32.61792028 18.52409495 24.5408249 17.99199628 15.16015625 15.58984375 C12.86982666 15.05426935 12.86982666 15.05426935 9.1875 15.1875 Z M182.88256836 156.52856445 C182.38995514 157.0255484 181.89734192 157.52253235 181.38980103 158.03457642 C180.03122621 159.40559425 178.67532488 160.77925979 177.31958008 162.15307617 C175.1875 164.1875 175.1875 164.1875 173.1875 165.1875 C173.1875 165.8475 173.1875 166.5075 173.1875 167.1875 C171.7025 167.6825 171.7025 167.6825 170.1875 168.1875 C170.1875 168.8475 170.1875 169.5075 170.1875 170.1875 C169.31738281 170.57615234 169.31738281 170.57615234 168.4296875 170.97265625 C166.01286048 172.28212176 164.31791324 173.74833897 162.3125 175.625 C143.13794496 192.93190358 121.40268158 206.96257704 98.1875 218.1875 C119.96499128 224.7136937 160.38411653 209.29767728 181.1875 202.1875 C181.92693848 201.93645508 182.66637695 201.68541016 183.42822266 201.42675781 C194.03561687 197.77139169 204.11100531 193.10103825 214.1875 188.1875 C214.1875 187.5275 214.1875 186.8675 214.1875 186.1875 C215.29158203 185.78917969 215.29158203 185.78917969 216.41796875 185.3828125 C229.68086991 179.65862667 240.61502332 165.76713619 246.125 152.8125 C248.88447235 145.05491053 249.93312875 137.3354695 246.5 129.625 C244.5565152 126.36102901 242.80598933 124.5855527 239.1875 123.1875 C215.24911649 117.30789703 197.56867941 141.662473 182.88256836 156.52856445 Z M-176.8125 125.1875 C-181.11139627 129.48639627 -181.98687749 133.11596253 -182.125 139.0625 C-181.99194754 151.03722113 -177.86879418 160.66223333 -170.8125 170.1875 C-170.26207031 170.94546875 -169.71164063 171.7034375 -169.14453125 172.484375 C-149.28467125 197.21055831 -110.21520575 206.1232807 -80.8125 212.1875 C-78.98452881 212.56865967 -78.98452881 212.56865967 -77.11962891 212.95751953 C-73.72180166 213.6623899 -70.32099928 214.35126076 -66.91784668 215.02993774 C-64.94359554 215.42381471 -62.97031325 215.82253835 -60.99707031 216.22143555 C-52.57736999 217.85363748 -44.37572581 218.77481442 -35.8125 219.1875 C-37.46006585 215.8923683 -41.04061178 214.96923705 -44.25 213.4375 C-50.6458544 210.30861816 -56.79547184 207.00475442 -62.8125 203.1875 C-64.42705078 202.18783203 -64.42705078 202.18783203 -66.07421875 201.16796875 C-74.37823902 195.98070174 -82.2032705 190.34613281 -89.8125 184.1875 C-90.33134766 183.76774902 -90.85019531 183.34799805 -91.38476562 182.91552734 C-98.20683763 177.35294746 -104.74346871 171.49488149 -111.1875 165.5 C-111.84145752 164.89454346 -112.49541504 164.28908691 -113.16918945 163.6652832 C-117.19078199 159.88444325 -120.84200427 155.940787 -124.35400391 151.68041992 C-124.83530762 151.18775635 -125.31661133 150.69509277 -125.8125 150.1875 C-126.4725 150.1875 -127.1325 150.1875 -127.8125 150.1875 C-127.8125 149.5275 -127.8125 148.8675 -127.8125 148.1875 C-128.4725 148.1875 -129.1325 148.1875 -129.8125 148.1875 C-130.21082031 147.3056604 -130.21082031 147.3056604 -130.6171875 146.40600586 C-136.3433707 135.77818178 -148.23643801 126.76888242 -159.55078125 123.36328125 C-165.8856242 121.84747512 -171.05065311 121.94122036 -176.8125 125.1875 Z M129.875 146.140625 C119.29736725 148.55926497 108.72534036 150.71627619 98 152.375 C97.01837891 152.52936523 96.03675781 152.68373047 95.02539062 152.84277344 C91.75047046 153.33326668 88.47238035 153.76871847 85.1875 154.1875 C84.52577789 154.27577057 83.86405579 154.36404114 83.18228149 154.45498657 C68.13199001 156.41290322 53.08145425 156.53045145 37.92797852 156.50317383 C35.15860646 156.49856696 32.38967623 156.50538961 29.62036133 156.52368164 C11.21466588 156.64427282 -6.70756251 155.7738328 -24.98597717 153.45793152 C-27.86469877 153.13544764 -27.86469877 153.13544764 -30.97947693 153.19941711 C-33.79750443 153.18756308 -36.02608296 152.63208432 -38.70166016 151.79785156 C-43.39615592 150.44043317 -48.217934 149.55527653 -53 148.5625 C-54.61938477 148.21832031 -54.61938477 148.21832031 -56.27148438 147.8671875 C-57.82899414 147.54234375 -57.82899414 147.54234375 -59.41796875 147.2109375 C-60.35793701 147.01419434 -61.29790527 146.81745117 -62.26635742 146.61474609 C-65.03968458 146.0771749 -65.03968458 146.0771749 -68.8125 146.1875 C-69.50858034 148.81049801 -70.19465382 151.4354207 -70.875 154.0625 C-71.07416016 154.80886719 -71.27332031 155.55523437 -71.47851562 156.32421875 C-72.74273112 160.31346726 -72.74273112 160.31346726 -71.8125 164.1875 C-66.9049177 165.82778799 -61.84075377 166.97146103 -56.8125 168.1875 C-55.23082031 168.57615234 -55.23082031 168.57615234 -53.6171875 168.97265625 C-45.9491381 170.73111871 -38.2032843 172.00756654 -30.4375 173.25 C-29.45354248 173.41242188 -28.46958496 173.57484375 -27.45581055 173.7421875 C-7.42130292 176.84308494 12.75610234 177.59570577 33 177.5625 C34.71873825 177.56268127 34.71873825 177.56268127 36.47219849 177.56286621 C56.30125028 177.53328268 75.60880303 176.29312376 95.1875 173.1875 C96.2585498 173.0220166 97.32959961 172.8565332 98.43310547 172.68603516 C120.22359815 170.72151757 120.22359815 170.72151757 139.1875 163.1875 C139.44560896 158.7867423 138.819232 155.05649498 137.6875 150.8125 C137.26984375 149.22308594 137.26984375 149.22308594 136.84375 147.6015625 C136.6271875 146.80492187 136.410625 146.00828125 136.1875 145.1875 C133.93401345 145.1875 132.07186981 145.62736286 129.875 146.140625 Z M-84.8125 173.1875 C-84.4825 173.8475 -84.1525 174.5075 -83.8125 175.1875 C-83.1525 175.1875 -82.4925 175.1875 -81.8125 175.1875 C-81.8125 175.8475 -81.8125 176.5075 -81.8125 177.1875 C-79.3375 178.1775 -79.3375 178.1775 -76.8125 179.1875 C-76.8125 179.8475 -76.8125 180.5075 -76.8125 181.1875 C-74.64027154 182.80556614 -74.64027154 182.80556614 -71.875 184.4375 C-68.36514303 186.60325144 -64.89657525 188.78584912 -61.5 191.125 C-32.60168749 210.44177982 1.00108969 224.35156169 36.1875 223.1875 C37.22003906 223.15914062 38.25257813 223.13078125 39.31640625 223.1015625 C72.18203648 221.53119109 106.5501883 205.2466981 132.21875 185.40234375 C134.53008709 183.67796463 136.56077359 182.32703572 139.1875 181.1875 C139.1875 180.5275 139.1875 179.8675 139.1875 179.1875 C139.785625 178.919375 140.38375 178.65125 141 178.375 C143.15974808 177.20256533 144.54540256 175.99380718 146.1875 174.1875 C140.93590899 174.81057012 135.89498477 175.92891377 130.75317383 177.15527344 C62.11109657 193.3491631 -10.77698389 192.02853745 -78.8984375 173.88671875 C-81.79923688 173.07083817 -81.79923688 173.07083817 -84.8125 173.1875 Z " fill="#FCFCFC" transform="translate(216.8125,137.8125)"/>
<path d="M0 0 C2.8125 1.25 2.8125 1.25 3.8125 3.25 C3.98597132 5.00143333 4.15640782 6.75325643 4.30664062 8.50683594 C5.09791941 17.17493531 7.37394321 23.67550636 11.8125 31.25 C12.16828125 31.99894531 12.5240625 32.74789062 12.890625 33.51953125 C14.12763157 35.84153934 15.44451926 36.13178687 17.8125 37.25 C19.05 38.36375 19.05 38.36375 20.3125 39.5 C24.86344268 43.42402711 30.43011368 45.68495652 35.8125 48.25 C37.81435013 49.24629115 39.81488377 50.2452466 41.8125 51.25 C41.8125 53.89 41.8125 56.53 41.8125 59.25 C38.78236885 61.05041425 37.12259752 61.49240293 33.6875 60.6875 C23.89902243 58.14025297 16.34805678 52.8308832 8.8125 46.25 C8.173125 45.71761719 7.53375 45.18523437 6.875 44.63671875 C-0.54673014 37.96047489 -6.6555764 27.05778743 -7.34008789 17.01025391 C-7.38319815 14.60741101 -7.36283723 12.21513469 -7.3125 9.8125 C-7.30347656 8.98556641 -7.29445313 8.15863281 -7.28515625 7.30664062 C-7.26181512 5.28763292 -7.22595288 3.26877644 -7.1875 1.25 C-4.17279362 -0.50258419 -3.56796792 -0.83952186 0 0 Z " fill="#FCFCFC" transform="translate(292.1875,175.75)"/>
<path d="M0 0 C3.15399042 0.30678746 4.61844814 0.59815283 6.8359375 2.93359375 C10.13528424 8.30131268 11.81237999 12.08255867 10.671875 18.375 C10.33929688 19.674375 10.33929688 19.674375 10 21 C9.75765625 21.94875 9.5153125 22.8975 9.265625 23.875 C4.765244 39.03417812 -5.14083727 53.85676314 -19 62 C-22.47746666 62.64397531 -23.88409933 62.61194553 -26.9375 60.9375 C-28 59 -28 59 -28.3125 55.75 C-26.83056007 51.5158859 -26.12679335 51.11943387 -22.5 48.8125 C-8.89619651 40.09361021 -3.65247821 25.00477536 0 10 C0.19980469 9.30390625 0.39960938 8.6078125 0.60546875 7.890625 C1.18187007 5.1284642 0.55916168 2.73367933 0 0 Z " fill="#FFFFFF" transform="translate(197,166)"/>
<path d="" fill="#FFFFFF" transform="translate(0,0)"/>
<path d="" fill="#FFFFFF" transform="translate(0,0)"/>
<path d="" fill="#FFFFFF" transform="translate(0,0)"/>
<path d="" fill="#FFFFFF" transform="translate(0,0)"/>
<path d="" fill="#FFFFFF" transform="translate(0,0)"/>
<path d="" fill="#FFFFFF" transform="translate(0,0)"/>
<path d="" fill="#FFFFFF" transform="translate(0,0)"/>
<path d="" fill="#FFFFFF" transform="translate(0,0)"/>
<path d="" fill="#FFFFFF" transform="translate(0,0)"/>
<path d="" fill="#FFFFFF" transform="translate(0,0)"/>
<path d="" fill="#FFFFFF" transform="translate(0,0)"/>
<path d="" fill="#FFFFFF" transform="translate(0,0)"/>
<path d="" fill="#FFFFFF" transform="translate(0,0)"/>
<path d="" fill="#FFFFFF" transform="translate(0,0)"/>
<path d="" fill="#FFFFFF" transform="translate(0,0)"/>
<path d="" fill="#FFFFFF" transform="translate(0,0)"/>
<path d="" fill="#FFFFFF" transform="translate(0,0)"/>
<path d="" fill="#FFFFFF" transform="translate(0,0)"/>
<path d="" fill="#FFFFFF" transform="translate(0,0)"/>
<path d="" fill="#FFFFFF" transform="translate(0,0)"/>
<path d="" fill="#FFFFFF" transform="translate(0,0)"/>
<path d="" fill="#FFFFFF" transform="translate(0,0)"/>
<path d="" fill="#FFFFFF" transform="translate(0,0)"/>
<path d="" fill="#FFFFFF" transform="translate(0,0)"/>
<path d="" fill="#FFFFFF" transform="translate(0,0)"/>
<path d="" fill="#FFFFFF" transform="translate(0,0)"/>
<path d="" fill="#FFFFFF" transform="translate(0,0)"/>
<path d="" fill="#FFFFFF" transform="translate(0,0)"/>
<path d="" fill="#FFFFFF" transform="translate(0,0)"/>
<path d="" fill="#FFFFFF" transform="translate(0,0)"/>
<path d="" fill="#FFFFFF" transform="translate(0,0)"/>
<path d="" fill="#FFFFFF" transform="translate(0,0)"/>
<path d="" fill="#FFFFFF" transform="translate(0,0)"/>
<path d="" fill="#FFFFFF" transform="translate(0,0)"/>
<path d="" fill="#FFFFFF" transform="translate(0,0)"/>
<path d="" fill="#FFFFFF" transform="translate(0,0)"/>
<path d="" fill="#FFFFFF" transform="translate(0,0)"/>
<path d="" fill="#FFFFFF" transform="translate(0,0)"/>
<path d="" fill="#FFFFFF" transform="translate(0,0)"/>
<path d="" fill="#FFFFFF" transform="translate(0,0)"/>
<path d="" fill="#FFFFFF" transform="translate(0,0)"/>
<path d="" fill="#FFFFFF" transform="translate(0,0)"/>
<path d="" fill="#FFFFFF" transform="translate(0,0)"/>
<path d="" fill="#FFFFFF" transform="translate(0,0)"/>
<path d="" fill="#FFFFFF" transform="translate(0,0)"/>
<path d="" fill="#FFFFFF" transform="translate(0,0)"/>
<path d="" fill="#FFFFFF" transform="translate(0,0)"/>
<path d="" fill="#FFFFFF" transform="translate(0,0)"/>
<path d="" fill="#FFFFFF" transform="translate(0,0)"/>
<path d="" fill="#FFFFFF" transform="translate(0,0)"/>
<path d="" fill="#FFFFFF" transform="translate(0,0)"/>
<path d="" fill="#FFFFFF" transform="translate(0,0)"/>
<path d="" fill="#FFFFFF" transform="translate(0,0)"/>
<path d="" fill="#FFFFFF" transform="translate(0,0)"/>
<path d="" fill="#FFFFFF" transform="translate(0,0)"/>
<path d="" fill="#FFFFFF" transform="translate(0,0)"/>
<path d="" fill="#FFFFFF" transform="translate(0,0)"/>
<path d="" fill="#FFFFFF" transform="translate(0,0)"/>
<path d="" fill="#FFFFFF" transform="translate(0,0)"/>
<path d="" fill="#FFFFFF" transform="translate(0,0)"/>
<path d="" fill="#FFFFFF" transform="translate(0,0)"/>
<path d="" fill="#FFFFFF" transform="translate(0,0)"/>
<path d="" fill="#FFFFFF" transform="translate(0,0)"/>
<path d="" fill="#FFFFFF" transform="translate(0,0)"/>
<path d="" fill="#FFFFFF" transform="translate(0,0)"/>
<path d="" fill="#FFFFFF" transform="translate(0,0)"/>
<path d="" fill="#FFFFFF" transform="translate(0,0)"/>
<path d="" fill="#FFFFFF" transform="translate(0,0)"/>
<path d="" fill="#FFFFFF" transform="translate(0,0)"/>
<path d="" fill="#FFFFFF" transform="translate(0,0)"/>
<path d="" fill="#FFFFFF" transform="translate(0,0)"/>
<path d="" fill="#FFFFFF" transform="translate(0,0)"/>
<path d="" fill="#FFFFFF" transform="translate(0,0)"/>
<path d="" fill="#FFFFFF" transform="translate(0,0)"/>
<path d="" fill="#FFFFFF" transform="translate(0,0)"/>
<path d="" fill="#FFFFFF" transform="translate(0,0)"/>
<path d="" fill="#FFFFFF" transform="translate(0,0)"/>
<path d="" fill="#FFFFFF" transform="translate(0,0)"/>
<path d="" fill="#FFFFFF" transform="translate(0,0)"/>
<path d="" fill="#FFFFFF" transform="translate(0,0)"/>
<path d="" fill="#FFFFFF" transform="translate(0,0)"/>
<path d="" fill="#FFFFFF" transform="translate(0,0)"/>
<path d="" fill="#FFFFFF" transform="translate(0,0)"/>
<path d="" fill="#FFFFFF" transform="translate(0,0)"/>
<path d="" fill="#FFFFFF" transform="translate(0,0)"/>
<path d="" fill="#FFFFFF" transform="translate(0,0)"/>
<path d="" fill="#FFFFFF" transform="translate(0,0)"/>
<path d="" fill="#FFFFFF" transform="translate(0,0)"/>
<path d="" fill="#FFFFFF" transform="translate(0,0)"/>
<path d="" fill="#FFFFFF" transform="translate(0,0)"/>
<path d="" fill="#FFFFFF" transform="translate(0,0)"/>
</svg>
