<?xml version="1.0" encoding="UTF-8" standalone="no" ?>
<!DOCTYPE svg PUBLIC "-//W3C//DTD SVG 1.1//EN" "http://www.w3.org/Graphics/SVG/1.1/DTD/svg11.dtd">
<svg xmlns="http://www.w3.org/2000/svg" xmlns:xlink="http://www.w3.org/1999/xlink" version="1.1" width="1080" height="1080" viewBox="0 0 1080 1080" xml:space="preserve">
<desc>Created with Fabric.js 5.2.4</desc>
<defs>
</defs>
<rect x="0" y="0" width="100%" height="100%" fill="transparent"></rect>
<g transform="matrix(1 0 0 1 540 540)" id="a745fa26-d388-4926-baf4-15ff51bf7100"  >
<rect style="stroke: #FFF; stroke-width: 1; stroke-dasharray: none; stroke-linecap: butt; stroke-dashoffset: 0; stroke-linejoin: miter; stroke-miterlimit: 4; fill:white; fill-rule: nonzero; opacity: 1; visibility: hidden;" vector-effect="non-scaling-stroke"  x="-540" y="-540" rx="0" ry="0" width="1080" height="1080" />
</g>
<g transform="matrix(1 0 0 1 540 540)" id="1e611ef0-81f7-4f99-8b8c-fb124674162e"  >
</g>
<g transform="matrix(1 0 0 1 540 494.77)"  >
<g style="" vector-effect="non-scaling-stroke"   >
		<g transform="matrix(1 0 0 1 0 0)"  >
<path style="stroke: #FFF; stroke-width: 1; stroke-dasharray: none; stroke-linecap: butt; stroke-dashoffset: 0; stroke-linejoin: miter; stroke-miterlimit: 4; fill:white; fill-rule: nonzero; opacity: 1;" vector-effect="non-scaling-stroke"  transform=" translate(-6.41, -133.95)" d="M 0 0 C 6.37372085 2.19898951 11.89551027 0.13282794 17.85546875 -2.16796875 C 30.3252455 -6.86593534 45.06031325 -9.15740516 57.71875 -3.61328125 C 90.38448868 14.37065575 103.56416843 56.64811251 113.51507568 90.29089355 C 119.91673481 112.47085918 125.12204402 135.05628883 129.23046875 157.76953125 C 143.68481431 150.05390128 157.18254397 141.14128317 170.23754883 131.24365234 C 177.19212362 125.98795356 184.06564717 121.98066242 192.23046875 118.76953125 C 192.99488281 118.44339844 193.75929688 118.11726563 194.546875 117.78125 C 205.12284402 113.67161931 216.67120169 113.81941242 227.23046875 117.76953125 C 235.59733448 121.57265204 241.38872321 128.37540454 245.40625 136.51953125 C 250.5049994 150.43839218 250.39088973 168.27177305 244.23046875 181.76953125 C 239.60156843 191.64623777 232.87733342 199.1632335 225.23046875 206.76953125 C 224.0084375 207.9915625 224.0084375 207.9915625 222.76171875 209.23828125 C 211.52363658 219.87699904 198.18602417 227.32026485 184.23046875 233.76953125 C 183.0909375 234.30320312 181.95140625 234.836875 180.77734375 235.38671875 C 161.39567184 244.08593428 139.87714459 250.07256663 118.63110352 251.31445312 C 108.36303556 251.92429261 100.09405442 254.87097195 90.65063477 258.88012695 C 72.84819507 266.41669748 54.3349375 270.17509722 35.23046875 272.76953125 C 34.47588379 272.87410645 33.72129883 272.97868164 32.94384766 273.08642578 C -7.10828789 277.8734995 -52.8218696 272.63516193 -89.14453125 254.61328125 C -94.6680045 252.11068555 -100.2863496 251.85966408 -106.26953125 251.39453125 C -132.77604145 248.8630208 -158.38060287 241.55832791 -181.76953125 228.76953125 C -182.836875 228.19332031 -183.90421875 227.61710938 -185.00390625 227.0234375 C -205.64806392 215.44452523 -225.74834267 198.57919609 -234.20703125 175.89453125 C -235.91617648 169.80201787 -236.15287695 163.86918831 -236.20703125 157.58203125 C -236.21726318 156.66760254 -236.22749512 155.75317383 -236.23803711 154.81103516 C -236.09169328 143.45352623 -232.5601947 133.282471 -224.953125 124.7265625 C -216.64047639 116.85053786 -207.01683075 114.65817185 -195.76953125 114.76953125 C -178.46401423 116.22903269 -163.72685163 126.33026964 -150.48730469 136.7109375 C -139.96436172 144.85954487 -128.41129622 151.36996454 -116.76953125 157.76953125 C -116.53878906 156.61880127 -116.30804688 155.46807129 -116.0703125 154.2824707 C -90.45609283 27.05181159 -90.45609283 27.05181159 -52.76953125 0.76953125 C -36.10683114 -8.71208262 -17.14795559 -9.13873082 0 0 Z M -54.76953125 23.76953125 C -78.46123929 54.71551449 -88.61101035 97.35688539 -96.76953125 134.76953125 C -81.47742395 141.90584799 -65.03686874 146.36344417 -48.51953125 149.58203125 C -47.03332275 149.87400391 -47.03332275 149.87400391 -45.51708984 150.171875 C -28.44335041 153.31492604 -11.47354864 154.14564758 5.85546875 154.08203125 C 7.36750885 154.07979553 7.36750885 154.07979553 8.91009521 154.07751465 C 24.22334307 154.03687262 39.1190374 153.43352615 54.23046875 150.76953125 C 55.06400879 150.63562988 55.89754883 150.50172852 56.75634766 150.36376953 C 74.61182623 147.47934231 92.88713175 142.58398963 109.23046875 134.76953125 C 95.07698256 66.19109667 95.07698256 66.19109667 54.23046875 11.76953125 C 47.60414425 7.68094805 39.81195046 7.60846568 32.23046875 8.76953125 C 27.66055208 9.95038827 23.2907531 11.61708027 18.91015625 13.359375 C 7.49013152 17.73583883 -2.02093877 15.30745613 -13.078125 10.8359375 C -30.16251483 4.08615021 -43.67224759 10.58145502 -54.76953125 23.76953125 Z M -213.58203125 135.20703125 C -214.30390625 136.05265625 -215.02578125 136.89828125 -215.76953125 137.76953125 C -216.60484375 138.72859375 -216.60484375 138.72859375 -217.45703125 139.70703125 C -222.5850448 147.76533825 -222.52080322 158.47738443 -220.64453125 167.51953125 C -215.35871951 187.07235697 -198.53374841 201.61946599 -181.60717773 211.51220703 C -179.6699192 212.61439399 -177.7231086 213.69655667 -175.76953125 214.76953125 C -175.14062988 215.11757813 -174.51172852 215.465625 -173.86376953 215.82421875 C -159.13488724 223.86708802 -143.25906524 229.61004025 -126.76953125 232.76953125 C -130.04183011 229.40289584 -133.4023902 226.36985854 -137.08203125 223.45703125 C -155.06023766 208.84823434 -168.36591741 189.82455259 -177.76953125 168.76953125 C -178.053125 168.13466797 -178.33671875 167.49980469 -178.62890625 166.84570312 C -183.54613587 155.53839444 -185.79884981 143.89789028 -187.76953125 131.76953125 C -189.33069944 131.43001506 -190.89354463 131.09820581 -192.45703125 130.76953125 C -193.32714844 130.58390625 -194.19726562 130.39828125 -195.09375 130.20703125 C -202.29712416 129.02925328 -208.04632649 130.40942046 -213.58203125 135.20703125 Z M 204.05078125 130.7890625 C 202.79007812 131.11261719 201.529375 131.43617188 200.23046875 131.76953125 C 199.99972656 133.03925781 199.76898438 134.30898438 199.53125 135.6171875 C 192.80898175 171.55816659 174.85173971 204.19262326 145.60546875 226.8671875 C 143.31058642 228.70535805 141.26740676 230.65243596 139.23046875 232.76953125 C 171.25506347 226.86678614 205.30099424 210.7012293 225.4765625 184.37109375 C 233.1999835 172.91497262 235.31401697 161.3125947 233.23046875 147.76953125 C 231.88914969 141.81249662 229.07486268 136.59245589 224.23046875 132.76953125 C 217.50393312 129.68516857 211.1992027 128.95444718 204.05078125 130.7890625 Z M -171.76953125 140.76953125 C -167.62613671 160.28710027 -159.02554251 178.77334862 -145.76953125 193.76953125 C -145.06054688 194.58679688 -144.3515625 195.4040625 -143.62109375 196.24609375 C -141.37507502 198.79158164 -139.0847961 201.28694474 -136.76953125 203.76953125 C -136.03347656 204.57132813 -135.29742187 205.373125 -134.5390625 206.19921875 C -103.98963673 238.23261998 -54.17866659 257.69042463 -10.30493164 258.9465332 C -8.74243457 258.97262348 -7.17983044 258.99281746 -5.6171875 259.0078125 C -4.76787155 259.01760635 -3.9185556 259.02740021 -3.04350281 259.03749084 C 53.64625668 259.55632449 105.08381471 245.00250985 147.23046875 205.76953125 C 147.97039062 205.09535156 148.7103125 204.42117188 149.47265625 203.7265625 C 167.03780901 187.06779663 179.2278838 164.3343393 184.23046875 140.76953125 C 181.43309208 142.08869162 179.00721288 143.56702761 176.53515625 145.421875 C 175.47542603 146.20739746 175.47542603 146.20739746 174.39428711 147.00878906 C 173.26132202 147.84941895 173.26132202 147.84941895 172.10546875 148.70703125 C 163.11705766 155.27559083 153.87201719 161.20960055 144.23046875 166.76953125 C 143.55757813 167.16092285 142.8846875 167.55231445 142.19140625 167.95556641 C 100.8923805 191.71262852 53.41423628 201.02263682 6.23046875 200.95703125 C 5.42132019 200.956427 4.61217163 200.95582275 3.77850342 200.9552002 C -57.78193123 200.8309734 -117.42521182 182.53666031 -165.78686523 143.76538086 C -168.449001 141.44907847 -168.449001 141.44907847 -171.76953125 140.76953125 Z M -99.76953125 149.76953125 C -100.11040459 151.30954832 -100.44184078 152.85165531 -100.76953125 154.39453125 C -100.95515625 155.25304687 -101.14078125 156.1115625 -101.33203125 156.99609375 C -101.79992743 159.9622213 -101.83986384 162.77160458 -101.76953125 165.76953125 C -84.56093807 173.36903079 -66.9938553 178.96948117 -48.51953125 182.58203125 C -47.52832275 182.77684082 -46.53711426 182.97165039 -45.51586914 183.17236328 C -28.44254429 186.31384398 -11.47308965 187.14723598 5.85546875 187.08203125 C 6.86449249 187.08020844 7.87351624 187.07838562 8.91311646 187.07650757 C 24.20305012 187.0300759 39.15824134 186.57354045 54.23046875 183.76953125 C 55.19307617 183.59260742 56.15568359 183.41568359 57.14746094 183.23339844 C 76.92430674 179.48272902 95.79676232 173.84024728 114.23046875 165.76953125 C 114.11591194 163.85221207 113.98840617 161.93566375 113.85546875 160.01953125 C 113.75105469 158.41851562 113.75105469 158.41851562 113.64453125 156.78515625 C 113.25173752 153.92443213 112.57396016 152.26795387 111.23046875 149.76953125 C 110.63959473 149.9804541 110.0487207 150.19137695 109.43994141 150.40869141 C 75.75097618 162.31906219 42.3941934 167.9994745 6.73046875 167.95703125 C 5.79472015 167.956427 4.85897156 167.95582275 3.89486694 167.9552002 C -9.42292416 167.9318224 -22.57625389 167.75452973 -35.76953125 165.76953125 C -36.64351563 165.64594238 -37.5175 165.52235352 -38.41796875 165.39501953 C -59.34860383 162.37194986 -79.8677815 156.8960654 -99.76953125 149.76953125 Z" stroke-linecap="round" />
</g>
		<g transform="matrix(1 0 0 1 -0.23 -46.93)"  >
<path style="stroke: #FFF; stroke-width: 1; stroke-dasharray: none; stroke-linecap: butt; stroke-dashoffset: 0; stroke-linejoin: miter; stroke-miterlimit: 4; fill: white; fill-rule: nonzero; opacity: 1;" vector-effect="non-scaling-stroke"  transform=" translate(4.06, -35.25)" d="M 0 0 C 3.3506929 2.55805587 4.88356279 6.36047436 6.6875 10.0625 C 7.00783203 10.69994141 7.32816406 11.33738281 7.65820312 11.99414062 C 10 16.73265925 10 16.73265925 10 19 C 10.92941406 19.04898438 11.85882813 19.09796875 12.81640625 19.1484375 C 29.24839658 20.14223879 29.24839658 20.14223879 33.0625 24.1875 C 34.04186748 27.12560244 34.21731944 29.00438255 33.20703125 31.95703125 C 30.27747285 36.91547475 25.18633775 42.40683113 20 45 C 20.144375 45.9178125 20.28875 46.835625 20.4375 47.78125 C 23.08254398 65.26792963 23.08254398 65.26792963 20.4375 69.5 C 17.07082715 71.57179868 14.91843075 71.32993024 11 71 C 7.55045403 69.37070914 4.42987045 67.43280137 1.18359375 65.43359375 C -2.57672383 63.74029737 -4.10020924 63.79687306 -8 65 C -10.7758626 66.38141272 -10.7758626 66.38141272 -13.4375 68.0625 C -17.82358056 70.53562966 -20.86763112 72.04742222 -26 71 C -28.4375 69.5 -28.4375 69.5 -30 67 C -30.45818463 62.87633835 -30.14724274 59.67189185 -29.2578125 55.61328125 C -27.55082845 48.95013301 -27.55082845 48.95013301 -29.47265625 42.75390625 C -31.56394506 40.99878723 -33.72616016 39.50774326 -36 38 C -38.63498547 35.44139092 -40.65132657 32.89347565 -42 29.4375 C -42 26.01647533 -41.23727788 24.58685254 -39 22 C -32.48262637 19.1033895 -25.02867165 19.37044317 -18 19 C -17.72929687 18.13890625 -17.45859375 17.2778125 -17.1796875 16.390625 C -16.01642788 13.04721654 -14.66903768 9.93407771 -13.125 6.75 C -12.63257813 5.71359375 -12.14015625 4.6771875 -11.6328125 3.609375 C -8.54224596 -1.3296165 -5.4194545 -1.49899805 0 0 Z M -5 24 C -5.6496875 25.423125 -5.6496875 25.423125 -6.3125 26.875 C -8 30 -8 30 -11 32 C -13.32387947 32.39387788 -15.65793749 32.73486085 -18 33 C -17.195625 33.78375 -16.39125 34.5675 -15.5625 35.375 C -12.10486851 39.43820536 -12.11203893 43.84620904 -12 49 C -11.13375 48.75636719 -11.13375 48.75636719 -10.25 48.5078125 C -8.08131271 48.01835183 -6.21664384 47.86634124 -4 47.875 C -3.01 47.87113281 -3.01 47.87113281 -2 47.8671875 C 0.10126013 48.00672431 1.97628927 48.43083136 4 49 C 4.02126953 48.02160156 4.02126953 48.02160156 4.04296875 47.0234375 C 4.39300905 40.60918559 5.38280217 37.49880814 10 33 C 9.11248047 32.90525391 9.11248047 32.90525391 8.20703125 32.80859375 C 1.80959969 31.8171484 1.80959969 31.8171484 -0.67578125 29.30859375 C -1.85549806 27.58599841 -2.93561533 25.79614913 -4 24 C -4.33 24 -4.66 24 -5 24 Z" stroke-linecap="round" />
</g>
</g>
</g>
</svg>