<svg xmlns="http://www.w3.org/2000/svg" xmlns:xlink="http://www.w3.org/1999/xlink" version="1.1" width="256" height="256" viewBox="0 0 256 256" xml:space="preserve">
<g style="stroke: none; stroke-width: 0; stroke-dasharray: none; stroke-linecap: butt; stroke-linejoin: miter; stroke-miterlimit: 10; fill: none; fill-rule: nonzero; opacity: 1;" transform="translate(45.02412451361867 45.024124513618645) scale(1.83 1.83)">
	<path d="M 89 23.376 h -5.158 v -2.134 c 0 -0.001 0 -0.002 0 -0.002 c 0 -0.122 -0.028 -0.239 -0.071 -0.351 c -0.014 -0.037 -0.034 -0.068 -0.052 -0.103 c -0.036 -0.07 -0.079 -0.135 -0.131 -0.195 c -0.03 -0.034 -0.06 -0.064 -0.095 -0.094 c -0.023 -0.02 -0.04 -0.047 -0.065 -0.065 l -5.547 -4.006 c -0.961 -0.694 -2.214 -0.79 -3.269 -0.25 c -1.056 0.54 -1.712 1.611 -1.712 2.797 v 1.271 H 17.026 c -3.036 0 -5.803 1.519 -7.452 4.008 c -0.989 -0.61 -1.809 -1.58 -2.487 -2.956 c -0.315 -0.639 -0.984 -1.052 -1.704 -1.052 H 1.906 c -0.637 0 -1.228 0.316 -1.582 0.844 c -0.357 0.533 -0.423 1.207 -0.177 1.802 c 1.534 3.714 3.591 6.136 6.26 7.374 l -1.416 2.754 H 1.423 c -0.552 0 -1 0.448 -1 1 v 10.505 c 0 0.275 0.114 0.539 0.314 0.728 c 0.2 0.188 0.466 0.29 0.745 0.271 c 2.522 -0.15 4.194 0.271 5.11 1.283 c 0.87 0.961 1.128 2.59 0.771 4.819 L 4.187 68.855 c -0.243 1.318 0.109 2.666 0.967 3.696 s 2.119 1.621 3.459 1.621 h 12.062 c 2.251 0 4.17 -1.683 4.463 -3.915 l 2.327 -17.724 h 1.13 c 5.8 0 10.767 -3.779 12.36 -9.281 h 35.439 c 0.553 0 1 -0.448 1 -1 v -6.999 h 5.447 c 0.553 0 1 -0.448 1 -1 v -1.852 H 89 c 0.553 0 1 -0.448 1 -1 v -7.026 C 90 23.824 89.553 23.376 89 23.376 z M 74.899 18.972 c 0 -0.437 0.232 -0.817 0.622 -1.016 c 0.39 -0.2 0.833 -0.165 1.187 0.091 l 3.041 2.196 h -4.85 V 18.972 z M 2.044 22.242 h 3.281 c 0.85 1.704 1.952 2.956 3.275 3.753 l -1.276 2.481 C 5.119 27.474 3.383 25.431 2.044 22.242 z M 28.596 50.534 h -0.867 l 0.667 -5.081 c 0.165 -1.254 1.242 -2.2 2.507 -2.2 h 7.956 C 37.348 47.595 33.296 50.534 28.596 50.534 z M 81.842 33.255 h -5.447 H 32.987 c -0.552 0 -1 0.448 -1 1 s 0.448 1 1 1 h 42.408 v 5.999 H 30.903 c -2.265 0 -4.196 1.694 -4.491 3.939 l -3.256 24.805 c -0.163 1.24 -1.229 2.175 -2.48 2.175 H 8.614 c -0.745 0 -1.446 -0.328 -1.922 -0.901 c -0.477 -0.572 -0.672 -1.32 -0.538 -2.053 l 3.181 -17.257 c 0.461 -2.881 0.038 -5.068 -1.259 -6.501 c -1.193 -1.319 -3.048 -1.967 -5.652 -1.97 v -8.475 h 3.178 h 11.503 c 0.552 0 1 -0.448 1 -1 s -0.448 -1 -1 -1 H 7.24 l 3.596 -6.996 c 1.198 -2.331 3.57 -3.778 6.19 -3.778 h 56.873 h 7.942 v 2.134 v 7.026 V 33.255 z M 88 30.403 h -4.158 v -5.026 H 88 V 30.403 z" style="stroke: none; stroke-width: 1; stroke-dasharray: none; stroke-linecap: butt; stroke-linejoin: miter; stroke-miterlimit: 10; fill: rgb(255,255,255); fill-rule: nonzero; opacity: 1;" transform=" matrix(1 0 0 1 0 0) " stroke-linecap="round"/>
	<path d="M 27.867 35.255 c -0.359 0 -0.706 -0.193 -0.885 -0.533 l -4.426 -8.38 c -0.258 -0.489 -0.071 -1.094 0.417 -1.352 c 0.488 -0.259 1.094 -0.071 1.352 0.417 l 4.426 8.38 c 0.258 0.489 0.071 1.094 -0.417 1.352 C 28.185 35.218 28.024 35.255 27.867 35.255 z" style="stroke: none; stroke-width: 1; stroke-dasharray: none; stroke-linecap: butt; stroke-linejoin: miter; stroke-miterlimit: 10; fill: rgb(255,255,255); fill-rule: nonzero; opacity: 1;" transform=" matrix(1 0 0 1 0 0) " stroke-linecap="round"/>
	<path d="M 23.295 35.255 c -0.359 0 -0.706 -0.193 -0.885 -0.533 l -4.426 -8.38 c -0.258 -0.489 -0.071 -1.094 0.417 -1.352 c 0.489 -0.259 1.094 -0.071 1.352 0.417 l 4.426 8.38 c 0.258 0.489 0.071 1.094 -0.417 1.352 C 23.612 35.218 23.452 35.255 23.295 35.255 z" style="stroke: none; stroke-width: 1; stroke-dasharray: none; stroke-linecap: butt; stroke-linejoin: miter; stroke-miterlimit: 10; fill: rgb(255,255,255); fill-rule: nonzero; opacity: 1;" transform=" matrix(1 0 0 1 0 0) " stroke-linecap="round"/>
</g>
</svg>